<?xml version="1.0" standalone="no"?>
<!DOCTYPE svg PUBLIC "-//W3C//DTD SVG 20010904//EN"
 "http://www.w3.org/TR/2001/REC-SVG-20010904/DTD/svg10.dtd">
<svg version="1.0" xmlns="http://www.w3.org/2000/svg"
 width="16.000000pt" height="16.000000pt" viewBox="0 0 16.000000 16.000000"
 preserveAspectRatio="xMidYMid meet">
<metadata>
Created by potrace 1.11, written by Peter Selinger 2001-2013
</metadata>
<g transform="translate(0.000000,16.000000) scale(0.002286,-0.002286)"
fill="#000000" stroke="none">
<path d="M2717 6884 c-1 -1 -38 -4 -82 -8 -44 -4 -107 -11 -140 -16 -33 -5
-82 -11 -110 -15 -27 -3 -59 -8 -70 -10 -11 -3 -38 -7 -60 -10 -56 -8 -227
-41 -305 -59 l-65 -15 -57 34 c-91 54 -170 79 -225 71 -112 -15 -233 -100
-276 -194 -26 -58 -30 -197 -8 -252 52 -128 171 -211 303 -211 148 -1 275 85
317 214 7 20 21 41 31 47 63 34 306 89 465 106 28 3 59 7 70 9 84 17 468 25
580 12 238 -28 543 -104 722 -178 353 -147 714 -434 965 -765 151 -200 294
-488 358 -721 52 -195 68 -350 65 -633 -2 -200 -5 -239 -29 -346 -37 -171
-118 -436 -173 -569 -30 -73 -131 -275 -146 -294 -6 -7 -16 -22 -22 -32 -87
-158 -353 -523 -498 -682 l-53 -58 -214 151 c-118 84 -223 160 -234 170 -18
18 -18 19 20 67 22 26 42 50 45 53 15 13 150 186 201 256 63 89 183 277 215
341 12 23 26 50 32 60 77 142 140 344 161 518 12 102 16 399 6 474 -3 22 -8
58 -11 79 -16 119 -76 315 -137 451 -141 314 -464 622 -824 784 -156 71 -372
120 -624 144 -99 9 -351 5 -440 -6 -219 -29 -510 -105 -724 -189 l-99 -39 -61
26 c-87 37 -219 37 -289 1 -59 -30 -132 -106 -158 -165 -26 -60 -31 -179 -10
-243 39 -115 131 -182 294 -217 36 -7 132 18 191 51 53 29 105 90 128 149 8
22 24 63 35 90 17 45 24 53 83 82 74 37 340 127 420 142 107 20 148 22 440 27
332 5 365 2 536 -62 115 -43 304 -139 384 -195 124 -87 353 -358 430 -510 50
-97 112 -305 128 -426 9 -74 8 -297 -2 -388 -16 -153 -63 -326 -118 -441 -48
-100 -237 -374 -320 -464 -13 -14 -63 -70 -112 -125 -133 -150 -762 -795 -774
-795 -4 0 -119 90 -175 136 -10 8 -79 62 -153 121 l-136 106 34 30 c348 315
737 712 843 861 11 16 29 40 41 55 98 124 191 351 219 532 11 67 8 196 -5 269
-14 78 -72 207 -128 282 -83 113 -252 247 -385 307 -165 74 -272 95 -472 95
-139 0 -173 -4 -263 -27 -157 -40 -359 -130 -596 -266 -44 -25 -145 -94 -224
-154 -36 -27 -56 -37 -65 -30 -22 16 -112 34 -163 32 -143 -7 -271 -100 -306
-223 -14 -52 -13 -154 2 -203 30 -97 123 -187 219 -213 124 -33 248 3 340 100
33 34 80 138 82 180 3 50 21 81 76 129 111 100 387 260 543 315 206 74 454 86
610 29 148 -55 311 -196 375 -326 34 -69 39 -87 38 -150 0 -278 -91 -447 -419
-781 -40 -40 -292 -282 -350 -336 -389 -359 -534 -501 -534 -521 0 -11 58 -62
161 -141 230 -176 264 -202 364 -281 181 -143 215 -171 215 -178 0 -4 -6 -14
-13 -21 -7 -7 -57 -67 -112 -133 -142 -171 -236 -275 -250 -275 -6 0 -52 35
-102 77 -402 347 -635 493 -848 534 -98 19 -121 21 -220 23 -449 9 -831 -277
-961 -719 -15 -48 -18 -96 -17 -245 0 -102 4 -207 8 -235 37 -259 252 -600
455 -718 68 -39 159 -72 232 -82 23 -3 57 -9 73 -12 53 -9 308 -10 380 -1 96
11 130 16 130 18 0 1 13 4 29 6 16 3 75 27 130 53 278 133 440 271 661 565 66
88 125 161 131 163 9 3 174 -122 194 -147 12 -15 243 -173 328 -224 251 -152
536 -261 887 -342 121 -28 132 -30 190 -39 22 -3 54 -7 70 -10 141 -21 296
-28 650 -28 320 -1 671 11 840 28 28 2 86 7 130 10 44 3 96 8 115 10 19 3 60
7 90 10 30 3 66 7 80 9 14 2 48 7 75 11 334 45 717 143 810 206 103 71 100
256 -6 311 -73 37 -157 28 -389 -42 -143 -43 -266 -74 -340 -85 -24 -4 -47 -8
-50 -10 -3 -1 -27 -6 -55 -9 -27 -3 -68 -9 -90 -12 -22 -3 -51 -7 -65 -9 -67
-10 -248 -28 -400 -41 -41 -3 -91 -7 -110 -9 -103 -10 -395 -19 -620 -18 -282
0 -421 7 -550 28 -19 3 -48 8 -65 10 -41 5 -92 15 -221 41 -138 27 -435 122
-555 175 -195 87 -326 168 -530 325 -147 113 -209 165 -209 175 0 10 127 179
212 280 34 43 79 96 97 119 19 24 40 48 45 54 6 6 45 52 86 101 66 80 100 120
150 174 8 9 62 71 120 136 116 133 270 295 280 295 15 0 180 -117 495 -350
137 -102 261 -190 268 -190 13 0 79 75 182 205 66 83 122 152 125 155 3 3 46
59 96 125 358 475 599 957 704 1408 53 230 65 358 65 702 0 322 -12 435 -66
628 -55 194 -117 329 -257 557 -128 208 -187 284 -357 455 -291 293 -522 449
-908 609 -276 114 -483 170 -679 182 -87 5 -506 12 -511 8z m-1467 -5133 c116
-21 198 -61 341 -167 166 -123 496 -411 491 -428 -13 -41 -183 -254 -295 -370
-140 -144 -240 -223 -353 -280 -149 -74 -447 -85 -598 -21 -117 50 -232 163
-295 291 -49 101 -62 137 -78 224 -24 132 9 309 89 468 76 151 276 276 473
295 51 5 167 -1 225 -12z"/>
</g>
</svg>
