<?xml version="1.0" encoding="iso-8859-1"?>
<!-- Generator: Adobe Illustrator 19.1.0, SVG Export Plug-In . SVG Version: 6.00 Build 0)  -->
<svg xmlns="http://www.w3.org/2000/svg" xmlns:xlink="http://www.w3.org/1999/xlink" version="1.1" id="Capa_1" x="0px" y="0px" viewBox="0 0 48.25 48.25" style="enable-background:new 0 0 48.25 48.25;" xml:space="preserve" width="512px" height="512px">
<path d="M45.817,29.509c-0.146-0.534-0.699-0.847-1.228-0.702L37.644,30.7l-4.984-2.848l7.792-2.82  c0.396-0.144,0.66-0.521,0.659-0.942s-0.267-0.798-0.663-0.94l-7.781-2.78l4.962-2.852l6.949,1.877  c0.087,0.023,0.175,0.035,0.262,0.035c0.44,0,0.844-0.294,0.965-0.74c0.144-0.533-0.172-1.082-0.705-1.226l-5.018-1.355l4.591-2.639  c0.479-0.275,0.645-0.887,0.369-1.365c-0.276-0.479-0.885-0.644-1.365-0.369l-4.591,2.638l1.355-5.017  c0.144-0.533-0.172-1.082-0.705-1.226c-0.528-0.143-1.082,0.17-1.227,0.705l-1.877,6.949l-5.025,2.888l1.466-8.232  c0.074-0.415-0.12-0.832-0.486-1.042c-0.365-0.209-0.822-0.168-1.146,0.105l-6.316,5.364V9.124l5.089-5.089  c0.391-0.391,0.391-1.023,0-1.414s-1.023-0.391-1.414,0l-3.675,3.675V1c0-0.552-0.448-1-1-1s-1,0.448-1,1v5.296L19.45,2.621  c-0.391-0.391-1.023-0.391-1.414,0s-0.391,1.023,0,1.414l5.089,5.089v5.78l-6.378-5.371c-0.323-0.271-0.781-0.312-1.146-0.1  c-0.365,0.211-0.558,0.629-0.482,1.044l1.497,8.205l-5.018-2.868L9.704,8.87C9.558,8.337,9.007,8.021,8.476,8.168  C7.943,8.313,7.629,8.863,7.774,9.396l1.367,5.014l-4.598-2.628c-0.479-0.273-1.09-0.107-1.364,0.372  c-0.274,0.479-0.107,1.09,0.372,1.364l4.597,2.627l-5.014,1.367c-0.533,0.146-0.847,0.695-0.702,1.228  c0.122,0.445,0.524,0.737,0.964,0.737c0.087,0,0.175-0.012,0.264-0.036l6.944-1.893l4.984,2.848l-7.789,2.82  c-0.396,0.144-0.661,0.521-0.66,0.942s0.266,0.798,0.664,0.94l7.781,2.78l-4.962,2.852l-6.949-1.877  c-0.536-0.145-1.083,0.171-1.226,0.705c-0.144,0.533,0.171,1.082,0.705,1.227l5.018,1.355L3.577,34.78  c-0.479,0.275-0.644,0.887-0.369,1.365c0.185,0.322,0.522,0.502,0.868,0.502c0.169,0,0.34-0.043,0.497-0.133l4.592-2.639  l-1.355,5.018c-0.144,0.533,0.171,1.082,0.705,1.227c0.087,0.023,0.175,0.034,0.261,0.034c0.441,0,0.845-0.293,0.965-0.739  l1.877-6.948l5.026-2.888l-1.466,8.232c-0.074,0.416,0.121,0.833,0.486,1.043c0.155,0.089,0.327,0.133,0.498,0.133  c0.232,0,0.462-0.081,0.647-0.237l6.316-5.365v5.742l-5.089,5.09c-0.391,0.391-0.391,1.023,0,1.414  c0.195,0.195,0.451,0.293,0.707,0.293s0.512-0.098,0.707-0.293l3.675-3.676v5.296c0,0.553,0.448,1,1,1s1-0.447,1-1v-5.296  L28.8,45.63c0.195,0.195,0.451,0.293,0.707,0.293s0.512-0.098,0.707-0.293c0.391-0.391,0.391-1.023,0-1.414l-5.089-5.09v-5.78  l6.378,5.37c0.324,0.271,0.781,0.31,1.146,0.101c0.364-0.212,0.558-0.63,0.481-1.045l-1.496-8.204l5.019,2.868l1.893,6.943  c0.121,0.445,0.524,0.737,0.964,0.737c0.088,0,0.176-0.011,0.264-0.035c0.533-0.146,0.848-0.695,0.702-1.228l-1.367-5.014  l4.597,2.627c0.156,0.09,0.327,0.132,0.495,0.132c0.347,0,0.685-0.181,0.869-0.504c0.274-0.479,0.107-1.09-0.372-1.364L40.1,32.104  l5.015-1.367C45.648,30.591,45.963,30.041,45.817,29.509z M37.156,24.098l-6.774,2.452l-4.246-2.427l4.252-2.443L37.156,24.098z   M30.617,12.826l-1.272,7.146l-4.22,2.425V17.49L30.617,12.826z M17.586,12.854l5.539,4.665v4.884l-4.239-2.423L17.586,12.854z   M11.094,24.152l6.773-2.452l4.247,2.427l-4.252,2.443L11.094,24.152z M17.633,35.424l1.273-7.146l4.219-2.425v4.906L17.633,35.424z   M30.665,35.396l-5.54-4.664v-4.884l4.24,2.423L30.665,35.396z" fill="#006DF0"/>
<g>
</g>
<g>
</g>
<g>
</g>
<g>
</g>
<g>
</g>
<g>
</g>
<g>
</g>
<g>
</g>
<g>
</g>
<g>
</g>
<g>
</g>
<g>
</g>
<g>
</g>
<g>
</g>
<g>
</g>
</svg>
