<?xml version="1.0" encoding="utf-8"?>
<!-- Generator: Adobe Illustrator 22.1.0, SVG Export Plug-In . SVG Version: 6.00 Build 0)  -->
<svg version="1.1" id="Слой_1" xmlns="http://www.w3.org/2000/svg" xmlns:xlink="http://www.w3.org/1999/xlink" x="0px" y="0px"
	 viewBox="0 0 512 512" style="enable-background:new 0 0 512 512;" xml:space="preserve">
<style type="text/css">
	.st0{fill:#FFFFFF;}
</style>
<path class="st0" d="M300.3,281.2l65.8,65.8l83.7-83.5c5.2,2.9,11.4,4.4,17.7,4.4c20.5,0,37.4-16.6,37.4-37.4
	c0-20.5-16.6-37.4-37.4-37.4c-20.5,0-37.4,16.6-37.4,37.4c0,5.7,1.3,10.9,3.4,15.9L365.8,314l-57.2-57.7l141.7-141.7
	c4.9,2.6,10.7,3.9,16.9,3.9c20.5,0,37.4-16.6,37.4-37.4c0-20.5-16.6-37.4-37.4-37.4c-20.5,0-37.4,16.6-37.4,37.4
	c0,6,1.6,11.7,3.9,16.9L226.5,305.1l-8.3,8.3l-57.5-57.2l141.2-141.2c4.9,2.6,10.7,3.9,16.9,3.9c20.5,0,37.4-16.9,37.4-37.4
	s-16.9-37.4-37.4-37.4c-20.5,0-37.4,16.9-37.4,37.4c0,6,1.6,11.7,3.9,16.9L127.4,256.2l73.8,74.1l-57.5,57.5l-16.6,16.6l-28.6,28.9
	c-7.5,7.5-17.9,12-28.6,12c-10.9,0-21.1-4.2-28.9-12c-7.5-7.8-12-17.9-12-28.9c0-10.9,4.2-21.1,12-28.9c7.5-7.5,17.9-12,28.9-12
	s21.1,4.2,28.6,12l20.5,20.5l8.3-8.3l8.3-8.3l-20.5-20.5c-12-12.2-28.1-18.7-45.2-18.7s-33.3,6.8-45.2,18.7
	C12.7,371.2,6,387,6,404.2c0,17.2,6.8,33.3,18.7,45.2c12.2,12.2,28.1,18.7,45.2,18.7s33.3-6.8,45.2-18.7L292,272.6L300.3,281.2z
	 M467.5,216.5c7.8,0,14,6.2,14,14c0,7.8-6.2,14-14,14c-7.8,0-14-6.2-14-14C453.4,222.7,459.7,216.5,467.5,216.5z M467,67.5
	c7.8,0,14,6.2,14,14s-6.2,14-14,14s-14-6.2-14-14S459.4,67.5,467,67.5z M318.8,67.7c7.8,0,14,6.2,14,14s-6.2,14-14,14
	c-7.8,0-14-6.2-14-14S311,67.7,318.8,67.7z M504.7,425.2c0,3.4-1.3,6.2-3.6,8.3l-15.9,15.9c-12.2,12.2-28.1,18.7-45.2,18.7
	c-17.2,0-33.3-6.8-45.2-18.7l-36.9-36.9c-15.9-15.9-41.6-15.9-57.5,0l-36.9,36.9c-12,12.2-28.1,18.7-45.2,18.7s-33.3-6.8-45.2-18.7
	l-20.5-20.5l16.6-16.6l20.5,20.5c7.5,7.5,17.9,12,28.9,12c10.9,0,21.1-4.2,28.6-12l36.9-36.9c12-12.2,28.1-18.7,45.2-18.7
	c17.2,0,33.3,6.8,45.2,18.7l36.9,36.9c7.8,7.5,17.9,12,28.6,12c10.9,0,21.1-4.2,28.9-12l16.1-16.1l0,0c2.1-2.1,4.9-3.4,8.3-3.4
	C499.5,413.5,504.7,418.7,504.7,425.2z"/>
</svg>
