<?xml version="1.0" encoding="utf-8"?>
<!-- Generator: Adobe Illustrator 22.1.0, SVG Export Plug-In . SVG Version: 6.00 Build 0)  -->
<svg version="1.1" id="Слой_1" xmlns="http://www.w3.org/2000/svg" xmlns:xlink="http://www.w3.org/1999/xlink" x="0px" y="0px"
	 viewBox="0 0 512 512" style="enable-background:new 0 0 512 512;" xml:space="preserve">
<path d="M299.6,280.8l64.8,64.8l82.5-82.2c5.1,2.8,11.3,4.4,17.4,4.4c20.2,0,36.9-16.4,36.9-36.9c0-20.2-16.4-36.9-36.9-36.9
	c-20.2,0-36.9,16.4-36.9,36.9c0,5.6,1.3,10.8,3.3,15.6l-66.6,66.6l-56.3-56.9l139.6-139.6c4.9,2.6,10.5,3.8,16.6,3.8
	c20.2,0,36.9-16.4,36.9-36.9c0-20.2-16.4-36.9-36.9-36.9c-20.2,0-36.9,16.4-36.9,36.9c0,5.9,1.5,11.5,3.8,16.6L226.9,304.4l-8.2,8.2
	l-56.6-56.3l139.1-139.1c4.9,2.6,10.5,3.8,16.6,3.8c20.2,0,36.9-16.6,36.9-36.9S338,47.2,317.8,47.2c-20.2,0-36.9,16.6-36.9,36.9
	c0,5.9,1.5,11.5,3.8,16.6L129.3,256.2l72.7,73l-56.6,56.6l-16.4,16.4l-28.2,28.4c-7.4,7.4-17.7,11.8-28.2,11.8
	c-10.8,0-20.7-4.1-28.4-11.8c-7.4-7.7-11.8-17.7-11.8-28.4c0-10.8,4.1-20.7,11.8-28.4c7.4-7.4,17.7-11.8,28.4-11.8
	s20.7,4.1,28.2,11.8l20.2,20.2l8.2-8.2l8.2-8.2l-20.2-20.2c-11.8-12-27.7-18.4-44.6-18.4s-32.8,6.7-44.6,18.4
	c-11.8,12-18.4,27.7-18.4,44.6c0,16.9,6.7,32.8,18.4,44.6c12,12,27.7,18.4,44.6,18.4s32.8-6.7,44.6-18.4l174.2-174.2L299.6,280.8z
	 M464.3,217c7.7,0,13.8,6.1,13.8,13.8c0,7.7-6.1,13.8-13.8,13.8s-13.8-6.1-13.8-13.8C450.5,223.2,456.6,217,464.3,217z M463.8,70.3
	c7.7,0,13.8,6.1,13.8,13.8S471.5,98,463.8,98S450,91.8,450,84.1S456.4,70.3,463.8,70.3z M317.8,70.5c7.7,0,13.8,6.1,13.8,13.8
	s-6.1,13.8-13.8,13.8c-7.7,0-13.8-6.1-13.8-13.8S310.1,70.5,317.8,70.5z M500.9,422.7c0,3.3-1.3,6.1-3.6,8.2l-15.6,15.6
	c-12,12-27.7,18.4-44.6,18.4c-16.9,0-32.8-6.7-44.6-18.4l-36.4-36.4c-15.6-15.6-41-15.6-56.6,0l-36.4,36.4
	c-11.8,12-27.7,18.4-44.6,18.4c-16.9,0-32.8-6.7-44.6-18.4l-20.2-20.2l16.4-16.4l20.2,20.2c7.4,7.4,17.7,11.8,28.4,11.8
	c10.8,0,20.7-4.1,28.2-11.8l36.4-36.4c11.8-12,27.7-18.4,44.6-18.4c16.9,0,32.8,6.7,44.6,18.4l36.4,36.4
	c7.7,7.4,17.7,11.8,28.2,11.8c10.8,0,20.7-4.1,28.4-11.8l15.9-15.9l0,0c2-2,4.9-3.3,8.2-3.3C495.8,411.2,500.9,416.3,500.9,422.7z"
	/>
</svg>
