<?xml version="1.0" encoding="utf-8"?>
<!-- Generator: Adobe Illustrator 22.1.0, SVG Export Plug-In . SVG Version: 6.00 Build 0)  -->
<svg version="1.1" id="Слой_1" xmlns="http://www.w3.org/2000/svg" xmlns:xlink="http://www.w3.org/1999/xlink" x="0px" y="0px"
	 viewBox="0 0 512 512" style="enable-background:new 0 0 512 512;" xml:space="preserve">
<style type="text/css">
	.st0{fill:url(#SVGID_1_);}
</style>
<linearGradient id="SVGID_1_" gradientUnits="userSpaceOnUse" x1="255.45" y1="51.7348" x2="255.45" y2="482.2957" gradientTransform="matrix(1 0 0 -1 0 512)">
	<stop  offset="0" style="stop-color:#1B864E"/>
	<stop  offset="1" style="stop-color:#76B695"/>
</linearGradient>
<path class="st0" d="M299.6,281l64.8,64.8l82.5-82.2c5.1,2.8,11.3,4.4,17.4,4.4c20.2,0,36.9-16.4,36.9-36.9
	c0-20.2-16.4-36.9-36.9-36.9c-20.2,0-36.9,16.4-36.9,36.9c0,5.6,1.3,10.8,3.3,15.6l-66.6,66.6l-56.3-56.9l139.6-139.6
	c4.9,2.6,10.5,3.8,16.6,3.8c20.2,0,36.9-16.4,36.9-36.9c0-20.2-16.4-36.9-36.9-36.9c-20.2,0-36.9,16.4-36.9,36.9
	c0,5.9,1.5,11.5,3.8,16.6L226.9,304.5l-8.2,8.2l-56.6-56.3l139.1-139.1c4.9,2.6,10.5,3.8,16.6,3.8c20.2,0,36.9-16.6,36.9-36.9
	S338,47.4,317.8,47.4c-20.2,0-36.9,16.6-36.9,36.9c0,5.9,1.5,11.5,3.8,16.6L129.3,256.4l72.7,73L145.4,386l-16.4,16.4l-28.2,28.4
	c-7.4,7.4-17.7,11.8-28.2,11.8c-10.8,0-20.7-4.1-28.4-11.8c-7.4-7.7-11.8-17.7-11.8-28.4c0-10.8,4.1-20.7,11.8-28.4
	c7.4-7.4,17.7-11.8,28.4-11.8s20.7,4.1,28.2,11.8l20.2,20.2l8.2-8.2l8.2-8.2l-20.2-20.2c-11.8-12-27.7-18.4-44.6-18.4
	s-32.8,6.7-44.6,18.4c-11.8,12-18.4,27.7-18.4,44.6c0,16.9,6.7,32.8,18.4,44.6c12,12,27.7,18.4,44.6,18.4s32.8-6.7,44.6-18.4
	l174.2-174.2L299.6,281z M464.3,217.2c7.7,0,13.8,6.1,13.8,13.8s-6.1,13.8-13.8,13.8s-13.8-6.1-13.8-13.8S456.6,217.2,464.3,217.2z
	 M463.8,70.4c7.7,0,13.8,6.1,13.8,13.8s-6.1,13.8-13.8,13.8S450,92,450,84.3S456.4,70.4,463.8,70.4z M317.8,70.7
	c7.7,0,13.8,6.1,13.8,13.8s-6.1,13.8-13.8,13.8c-7.7,0-13.8-6.1-13.8-13.8S310.1,70.7,317.8,70.7z M500.9,422.9
	c0,3.3-1.3,6.1-3.6,8.2l-15.6,15.6c-12,12-27.7,18.4-44.6,18.4c-16.9,0-32.8-6.7-44.6-18.4l-36.4-36.4c-15.6-15.6-41-15.6-56.6,0
	l-36.4,36.4c-11.8,12-27.7,18.4-44.6,18.4c-16.9,0-32.8-6.7-44.6-18.4l-20.2-20.2l16.4-16.4l20.2,20.2c7.4,7.4,17.7,11.8,28.4,11.8
	c10.8,0,20.7-4.1,28.2-11.8l36.4-36.4c11.8-12,27.7-18.4,44.6-18.4c16.9,0,32.8,6.7,44.6,18.4l36.4,36.4
	c7.7,7.4,17.7,11.8,28.2,11.8c10.8,0,20.7-4.1,28.4-11.8l15.9-15.9l0,0c2-2,4.9-3.3,8.2-3.3C495.8,411.3,500.9,416.5,500.9,422.9z"
	/>
</svg>
