<?xml version="1.0" standalone="no"?>
<!DOCTYPE svg PUBLIC "-//W3C//DTD SVG 20010904//EN"
 "http://www.w3.org/TR/2001/REC-SVG-20010904/DTD/svg10.dtd">
<svg width="512" height="512" version="1.0" xmlns="http://www.w3.org/2000/svg" preserveAspectRatio="xMidYMid meet">

 <g>
  <rect rx="30" height="512" width="512" y="0" x="0" fill="#fff"/>
  <g id="svg_1" fill="#118e4c" transform="translate(0,512) scale(0.10000000149011612,-0.10000000149011612) ">
   <path stroke="null" id="svg_2" d="m1947.065292,4930.999869c-208.318249,-24.95979 -445.436256,-65.279451 -513.595684,-88.319258c-4.79996,-0.959992 -24.95979,8.639927 -43.199637,22.079814c-18.239847,14.399879 -58.559508,33.599718 -88.319258,43.199637c-52.799556,16.319863 -57.599516,16.319863 -113.279048,-0.959992c-108.479088,-32.639726 -172.798548,-115.199032 -172.798548,-222.718128c0,-106.559104 68.159427,-195.838354 171.838556,-223.67812c120.958983,-32.639726 254.397862,40.319661 282.237628,155.518693c5.759952,21.119823 16.319863,27.839766 62.399476,41.279653c192.958378,57.599516 529.915546,91.199234 717.113973,72.959387c129.598911,-12.479895 339.837144,-58.559508 455.036176,-98.879169c357.116999,-124.798951 705.59407,-430.076385 882.232585,-774.713489c122.878967,-238.077999 167.038596,-426.236418 168.95858,-706.554062c0,-170.878564 -9.599919,-241.917967 -57.599516,-414.716515c-69.119419,-248.63791 -134.39887,-393.596692 -275.517684,-605.754909c-81.599314,-123.838959 -248.63791,-338.877152 -296.637507,-383.996773l-23.039806,-21.119823l-165.118612,117.119016l-164.15862,117.119016l33.599718,39.359669c244.797943,283.19762 404.156603,561.59528 445.436256,777.593465c28.799758,152.638717 28.799758,375.356845 -0.959992,523.195603c-17.279855,89.27925 -74.879371,250.557894 -116.159024,324.477273c-118.079008,215.038193 -355.197015,417.59649 -596.15499,510.715708c-194.878362,74.879371 -513.595684,106.559104 -738.233796,71.999395c-154.558701,-23.039806 -397.43666,-91.199234 -503.995764,-141.118814c-36.479693,-17.279855 -42.239645,-17.279855 -62.399476,-3.839968c-12.479895,7.679935 -45.119621,19.199839 -72.959387,24.95979c-100.799153,22.079814 -194.878362,-21.119823 -249.597902,-113.279048c-22.079814,-38.399677 -25.919782,-55.679532 -24.95979,-118.079008c0,-65.279451 3.839968,-76.799355 30.719742,-116.159024c39.359669,-56.639524 70.079411,-78.719338 140.158822,-98.879169c46.079613,-13.439887 63.359468,-14.399879 98.879169,-4.79996c106.559104,25.919782 159.358661,78.719338 186.238435,180.478483c14.399879,59.5195 21.119823,63.359468 171.838556,119.998991c170.878564,63.359468 263.037789,77.759346 513.595684,77.759346c215.038193,0.959992 222.718128,0 307.197418,-25.919782c118.079008,-36.479693 269.757733,-112.319056 350.397055,-175.678524c71.999395,-56.639524 202.558298,-212.158217 262.077797,-311.997378c39.359669,-68.159427 78.719338,-184.318451 98.879169,-295.677515c34.55971,-197.758338 -6.719944,-489.595885 -89.27925,-633.594675c-121.918975,-209.278241 -225.598104,-335.037184 -581.755111,-695.994151l-254.397862,-258.23783l-163.198628,128.638919l-163.198628,128.638919l92.159225,85.439282c480.955958,445.436256 629.754707,632.634683 689.274207,867.832706c56.639524,224.638112 12.479895,395.516676 -142.078806,546.235409c-114.23904,111.359064 -257.277838,181.438475 -420.476466,205.438273c-91.199234,13.439887 -215.998185,6.719944 -302.397459,-15.359871c-156.478685,-40.319661 -379.196813,-150.718733 -527.995563,-262.077797l-79.67933,-59.5195l-36.479693,15.359871c-47.999597,20.159831 -151.678725,14.399879 -191.998386,-10.559911c-86.399274,-53.759548 -122.878967,-115.199032 -122.878967,-206.398265c0,-131.518895 99.839161,-230.398064 233.278039,-230.398064c122.878967,0 231.358056,110.399072 231.358056,234.238031c0,55.679532 264.957773,228.47808 450.236216,292.797539c124.798951,43.199637 285.117604,51.839564 386.876749,20.159831c120.958983,-37.439685 244.797943,-141.118814 292.797539,-246.717927c22.079814,-47.999597 23.999798,-61.439484 20.159831,-136.318854c-13.439887,-220.798144 -102.719137,-340.797136 -588.475054,-788.153376c-260.157814,-239.037991 -331.197217,-309.117402 -331.197217,-322.557289c0,-6.719944 7.679935,-17.279855 17.279855,-22.079814c15.359871,-8.639927 258.23783,-195.838354 431.996369,-333.1172l79.67933,-63.359468l-42.239645,-48.959589c-23.039806,-27.839766 -81.599314,-98.879169 -131.518895,-158.398669c-78.719338,-94.079209 -91.199234,-105.599113 -104.639121,-95.039201c-8.639927,7.679935 -56.639524,48.959589 -106.559104,93.119217c-205.438273,179.518491 -371.516878,286.077596 -508.795724,326.397257c-111.359064,31.679734 -263.037789,36.479693 -363.836942,10.559911c-244.797943,-61.439484 -420.476466,-224.638112 -498.235813,-459.836135c-21.119823,-65.279451 -23.999798,-90.239242 -23.999798,-213.118209c0,-163.198628 14.399879,-233.278039 71.999395,-350.397055c105.599113,-212.158217 224.638112,-323.517281 386.876749,-359.996974c146.878766,-32.639726 363.836942,-28.799758 487.675901,9.599919c80.639322,24.95979 264.957773,135.358862 334.077192,199.678322c68.159427,62.399476 158.398669,170.878564 229.438072,272.637709c28.799758,41.279653 54.71954,74.879371 59.5195,74.879371c3.839968,0 29.75975,-20.159831 57.599516,-46.079613c67.199435,-60.479492 150.718733,-122.878967 233.278039,-173.75854c37.439685,-23.039806 82.559306,-51.839564 101.759145,-64.319459c176.638515,-110.399072 518.395643,-223.67812 781.433433,-258.23783c285.117604,-38.399677 909.11236,-23.999798 1348.788664,29.75975c239.037991,28.799758 544.315425,104.639121 607.674893,149.758741c74.879371,53.759548 71.039403,185.278443 -5.759952,221.758136c-53.759548,25.919782 -110.399072,20.159831 -255.357854,-26.879774c-213.118209,-68.159427 -354.237023,-91.199234 -764.153578,-125.758943c-236.158015,-20.159831 -631.674691,-23.039806 -777.593465,-5.759952c-387.83674,46.079613 -711.354022,156.478685 -937.912117,320.637305c-129.598911,94.079209 -247.677918,189.118411 -247.677918,198.71833c0,41.279653 662.394433,815.993142 697.914135,816.953134c6.719944,0 124.798951,-84.47929 263.997781,-188.158419c138.238838,-104.639121 258.23783,-190.078403 265.917765,-191.998386c16.319863,-3.839968 46.079613,31.679734 255.357854,299.517483c293.757531,374.396853 483.835934,767.993546 546.235409,1129.910504c37.439685,214.078201 37.439685,571.195199 0.959992,744.953739c-19.199839,94.079209 -64.319459,226.558096 -100.799153,299.517483c-49.91958,97.919177 -148.798749,260.157814 -209.278241,340.797136c-63.359468,86.399274 -220.798144,243.837951 -328.317241,329.277233c-195.838354,156.478685 -518.395643,306.237426 -791.993344,367.67691c-68.159427,15.359871 -128.638919,20.159831 -287.99758,22.079814c-110.399072,1.919984 -234.238031,0 -273.597701,-4.79996zm-945.592053,-3601.889729c108.479088,-23.039806 200.638314,-85.439282 454.076184,-307.197418l116.159024,-102.719137l-34.55971,-50.879572c-62.399476,-91.199234 -143.99879,-186.238435 -229.438072,-265.917765c-153.598709,-143.038798 -235.198023,-182.398467 -397.43666,-190.078403c-157.438677,-8.639927 -262.077797,28.799758 -353.277031,125.758943c-89.27925,94.079209 -143.99879,250.557894 -133.438879,379.196813c6.719944,79.67933 53.759548,210.238233 94.079209,262.077797c109.43908,137.278846 287.037588,191.998386 483.835934,149.758741z"/>
  </g>
 </g>
</svg>
