<?xml version="1.0" standalone="no"?>
<!DOCTYPE svg PUBLIC "-//W3C//DTD SVG 20010904//EN"
 "http://www.w3.org/TR/2001/REC-SVG-20010904/DTD/svg10.dtd">
<svg version="1.0" xmlns="http://www.w3.org/2000/svg"
 width="512.000000pt" height="512.000000pt" viewBox="0 0 512.000000 512.000000"
 preserveAspectRatio="xMidYMid meet">
<g transform="translate(0.000000,512.000000) scale(0.100000,-0.100000)"
fill="#118e4c" stroke="none">
<path d="M1920 5030 c-217 -26 -464 -68 -535 -92 -5 -1 -26 9 -45 23 -19 15
-61 35 -92 45 -55 17 -60 17 -118 -1 -113 -34 -180 -120 -180 -232 0 -111 71
-204 179 -233 126 -34 265 42 294 162 6 22 17 29 65 43 201 60 552 95 747 76
135 -13 354 -61 474 -103 372 -130 735 -448 919 -807 128 -248 174 -444 176
-736 0 -178 -10 -252 -60 -432 -72 -259 -140 -410 -287 -631 -85 -129 -259
-353 -309 -400 l-24 -22 -172 122 -171 122 35 41 c255 295 421 585 464 810 30
159 30 391 -1 545 -18 93 -78 261 -121 338 -123 224 -370 435 -621 532 -203
78 -535 111 -769 75 -161 -24 -414 -95 -525 -147 -38 -18 -44 -18 -65 -4 -13
8 -47 20 -76 26 -105 23 -203 -22 -260 -118 -23 -40 -27 -58 -26 -123 0 -68 4
-80 32 -121 41 -59 73 -82 146 -103 48 -14 66 -15 103 -5 111 27 166 82 194
188 15 62 22 66 179 125 178 66 274 81 535 81 224 1 232 0 320 -27 123 -38
281 -117 365 -183 75 -59 211 -221 273 -325 41 -71 82 -192 103 -308 36 -206
-7 -510 -93 -660 -127 -218 -235 -349 -606 -725 l-265 -269 -170 134 -170 134
96 89 c501 464 656 659 718 904 59 234 13 412 -148 569 -119 116 -268 189
-438 214 -95 14 -225 7 -315 -16 -163 -42 -395 -157 -550 -273 l-83 -62 -38
16 c-50 21 -158 15 -200 -11 -90 -56 -128 -120 -128 -215 0 -137 104 -240 243
-240 128 0 241 115 241 244 0 58 276 238 469 305 130 45 297 54 403 21 126
-39 255 -147 305 -257 23 -50 25 -64 21 -142 -14 -230 -107 -355 -613 -821
-271 -249 -345 -322 -345 -336 0 -7 8 -18 18 -23 16 -9 269 -204 450 -347 l83
-66 -44 -51 c-24 -29 -85 -103 -137 -165 -82 -98 -95 -110 -109 -99 -9 8 -59
51 -111 97 -214 187 -387 298 -530 340 -116 33 -274 38 -379 11 -255 -64 -438
-234 -519 -479 -22 -68 -25 -94 -25 -222 0 -170 15 -243 75 -365 110 -221 234
-337 403 -375 153 -34 379 -30 508 10 84 26 276 141 348 208 71 65 165 178
239 284 30 43 57 78 62 78 4 0 31 -21 60 -48 70 -63 157 -128 243 -181 39 -24
86 -54 106 -67 184 -115 540 -233 814 -269 297 -40 947 -25 1405 31 249 30
567 109 633 156 78 56 74 193 -6 231 -56 27 -115 21 -266 -28 -222 -71 -369
-95 -796 -131 -246 -21 -658 -24 -810 -6 -404 48 -741 163 -977 334 -135 98
-258 197 -258 207 0 43 690 850 727 851 7 0 130 -88 275 -196 144 -109 269
-198 277 -200 17 -4 48 33 266 312 306 390 504 800 569 1177 39 223 39 595 1
776 -20 98 -67 236 -105 312 -52 102 -155 271 -218 355 -66 90 -230 254 -342
343 -204 163 -540 319 -825 383 -71 16 -134 21 -300 23 -115 2 -244 0 -285 -5z
m-985 -3752 c113 -24 209 -89 473 -320 l121 -107 -36 -53 c-65 -95 -150 -194
-239 -277 -160 -149 -245 -190 -414 -198 -164 -9 -273 30 -368 131 -93 98
-150 261 -139 395 7 83 56 219 98 273 114 143 299 200 504 156z"/>
</g>
</svg>
