<?xml version="1.0" encoding="utf-8"?>
<!-- Generator: Adobe Illustrator 22.1.0, SVG Export Plug-In . SVG Version: 6.00 Build 0)  -->
<svg version="1.1" id="Слой_1" xmlns="http://www.w3.org/2000/svg" xmlns:xlink="http://www.w3.org/1999/xlink" x="0px" y="0px"
	 viewBox="0 0 512 512" style="enable-background:new 0 0 512 512;" xml:space="preserve">
<style type="text/css">
	.st0{fill:url(#SVGID_1_);}
</style>
<linearGradient id="SVGID_1_" gradientUnits="userSpaceOnUse" x1="255.45" y1="56.9403" x2="255.45" y2="476.8448" gradientTransform="matrix(1 0 0 -1 0 512)">
	<stop  offset="0" style="stop-color:#1B864E"/>
	<stop  offset="1" style="stop-color:#76B695"/>
</linearGradient>
<path class="st0" d="M298.5,280.2l63.2,63.2l80.4-80.2c5,2.7,11,4.2,17,4.2c19.7,0,36-16,36-36c0-19.7-16-36-36-36
	c-19.7,0-36,16-36,36c0,5.5,1.2,10.5,3.2,15.2l-64.9,64.9l-55-55.5l136.1-136.1c4.7,2.5,10.2,3.7,16.2,3.7c19.7,0,36-16,36-36
	c0-19.7-16-36-36-36c-19.7,0-36,16-36,36c0,5.7,1.5,11.2,3.7,16.2L227.6,303.2l-8,8l-55.2-55L300,120.6c4.7,2.5,10.2,3.7,16.2,3.7
	c19.7,0,36-16.2,36-36s-16.2-36-36-36s-36,16.2-36,36c0,5.7,1.5,11.2,3.7,16.2L132.4,256.2l70.9,71.2l-55.2,55.2l-16,16l-27.5,27.7
	c-7.2,7.2-17.2,11.5-27.5,11.5c-10.5,0-20.2-4-27.7-11.5c-7.2-7.5-11.5-17.2-11.5-27.7c0-10.5,4-20.2,11.5-27.7
	c7.2-7.2,17.2-11.5,27.7-11.5s20.2,4,27.5,11.5l19.7,19.7l8-8l8-8l-19.7-19.7c-11.5-11.7-27-18-43.5-18s-32,6.5-43.5,18
	c-11.5,11.7-18,27-18,43.5c0,16.5,6.5,32,18,43.5c11.7,11.7,27,18,43.5,18s32-6.5,43.5-18L290.5,272L298.5,280.2z M459.1,218
	c7.5,0,13.5,6,13.5,13.5c0,7.5-6,13.5-13.5,13.5s-13.5-6-13.5-13.5C445.7,224,451.7,218,459.1,218z M458.6,74.9
	c7.5,0,13.5,6,13.5,13.5c0,7.5-6,13.5-13.5,13.5c-7.5,0-13.5-6-13.5-13.5C445.2,80.9,451.4,74.9,458.6,74.9z M316.3,75.1
	c7.5,0,13.5,6,13.5,13.5s-6,13.5-13.5,13.5c-7.5,0-13.5-6-13.5-13.5S308.8,75.1,316.3,75.1z M494.9,418.6c0,3.2-1.2,6-3.5,8
	l-15.2,15.2c-11.7,11.7-27,18-43.5,18c-16.5,0-32-6.5-43.5-18l-35.5-35.5c-15.2-15.2-40-15.2-55.2,0l-35.5,35.5
	c-11.5,11.7-27,18-43.5,18c-16.5,0-32-6.5-43.5-18l-19.7-19.7l16-16l19.7,19.7c7.2,7.2,17.2,11.5,27.7,11.5c10.5,0,20.2-4,27.5-11.5
	l35.5-35.5c11.5-11.7,27-18,43.5-18c16.5,0,32,6.5,43.5,18l35.5,35.5c7.5,7.2,17.2,11.5,27.5,11.5c10.5,0,20.2-4,27.7-11.5
	l15.5-15.5l0,0c2-2,4.7-3.2,8-3.2C489.9,407.3,494.9,412.3,494.9,418.6z"/>
</svg>
